solid eccentric
facet normal 0.0 0.0 -1.0
outer loop
vertex -1.15004732909111 8.66025403784439 0.0
vertex -1.7673192220745 0.212091412570089 0.0
vertex -3.22111514095659 7.07106781186548 0.0
endloop
endfacet
facet normal 0.0 0.0 -1.0
outer loop
vertex -1.7673192220745 0.212091412570089 0.0
vertex -1.15004732909111 8.66025403784439 0.0
vertex -1.65220598302303 0.662280446384231 0.0
endloop
endfacet
facet normal 0.0 0.0 -1.0
outer loop
vertex -1.65220598302303 0.662280446384231 0.0
vertex -1.15004732909111 8.66025403784439 0.0
vertex -1.42449763662803 1.06733616224747 0.0
endloop
endfacet
facet normal 0.0 0.0 -1.0
outer loop
vertex -1.42449763662803 1.06733616224747 0.0
vertex -1.15004732909111 8.66025403784439 0.0
vertex -1.09971213039047 1.39965468250996 0.0
endloop
endfacet
facet normal 0.0 0.0 -1.0
outer loop
vertex -1.09971213039047 1.39965468250996 0.0
vertex -1.15004732909111 8.66025403784439 0.0
vertex 1.26176221988368 9.65925826289068 0.0
endloop
endfacet
facet normal 0.0 0.0 -1.0
outer loop
vertex -1.09971213039047 1.39965468250996 0.0
vertex 1.26176221988368 9.65925826289068 0.0
vertex -0.699983059827028 1.63658904919812 0.0
endloop
endfacet
facet normal 0.0 0.0 -1.0
outer loop
vertex -0.699983059827028 1.63658904919812 0.0
vertex 1.26176221988368 9.65925826289068 0.0
vertex -0.252551300513074 1.7619925767747 0.0
endloop
endfacet
facet normal 0.0 0.0 -1.0
outer loop
vertex -0.252551300513074 1.7619925767747 0.0
vertex 1.26176221988368 9.65925826289068 0.0
vertex 0.212091412570089 1.7673192220745 0.0
endloop
endfacet
facet normal 0.0 0.0 -1.0
outer loop
vertex 0.212091412570089 1.7673192220745 0.0
vertex 1.26176221988368 9.65925826289068 0.0
vertex 0.662280446384231 1.65220598302303 0.0
endloop
endfacet
facet normal 0.0 0.0 -1.0
outer loop
vertex 0.662280446384231 1.65220598302303 0.0
vertex 1.26176221988368 9.65925826289068 0.0
vertex 1.06733616224747 1.42449763662803 0.0
endloop
endfacet
facet normal 0.0 0.0 -1.0
outer loop
vertex 1.06733616224747 1.42449763662803 0.0
vertex 1.26176221988368 9.65925826289068 0.0
vertex 1.39965468250996 1.09971213039047 0.0
endloop
endfacet
facet normal 0.0 0.0 -1.0
outer loop
vertex 1.39965468250996 1.09971213039047 0.0
vertex 1.26176221988368 9.65925826289068 0.0
vertex 3.84995267090888 10.0 0.0
endloop
endfacet
facet normal 0.0 0.0 -1.0
outer loop
vertex 1.39965468250996 1.09971213039047 0.0
vertex 3.84995267090888 10.0 0.0
vertex 1.63658904919812 0.699983059827028 0.0
endloop
endfacet
facet normal 0.0 0.0 -1.0
outer loop
vertex 1.63658904919812 0.699983059827028 0.0
vertex 3.84995267090888 10.0 0.0
vertex 1.7619925767747 0.252551300513074 0.0
endloop
endfacet
facet normal 0.0 0.0 -1.0
outer loop
vertex 1.7619925767747 0.252551300513074 0.0
vertex 3.84995267090888 10.0 0.0
vertex 1.7673192220745 -0.212091412570088 0.0
endloop
endfacet
facet normal 0.0 0.0 -1.0
outer loop
vertex 1.7673192220745 -0.212091412570088 0.0
vertex 3.84995267090888 10.0 0.0
vertex 3.84995267090888 -10.0 0.0
endloop
endfacet
facet normal 0.0 0.0 -1.0
outer loop
vertex 3.84995267090888 -10.0 0.0
vertex 3.84995267090888 10.0 0.0
vertex 6.43814312193409 -9.65925826289068 0.0
endloop
endfacet
facet normal 0.0 0.0 -1.0
outer loop
vertex 6.43814312193409 -9.65925826289068 0.0
vertex 3.84995267090888 10.0 0.0
vertex 6.43814312193409 9.65925826289068 0.0
endloop
endfacet
facet normal 0.0 0.0 -1.0
outer loop
vertex 6.43814312193409 -9.65925826289068 0.0
vertex 6.43814312193409 9.65925826289068 0.0
vertex 8.84995267090888 -8.66025403784439 0.0
endloop
endfacet
facet normal 0.0 0.0 -1.0
outer loop
vertex 8.84995267090888 -8.66025403784439 0.0
vertex 6.43814312193409 9.65925826289068 0.0
vertex 8.84995267090888 8.66025403784439 0.0
endloop
endfacet
facet normal 0.0 0.0 -1.0
outer loop
vertex 8.84995267090888 -8.66025403784439 0.0
vertex 8.84995267090888 8.66025403784439 0.0
vertex 10.9210204827744 -7.07106781186548 0.0
endloop
endfacet
facet normal 0.0 0.0 -1.0
outer loop
vertex 10.9210204827744 -7.07106781186548 0.0
vertex 8.84995267090888 8.66025403784439 0.0
vertex 10.9210204827744 7.07106781186547 0.0
endloop
endfacet
facet normal 0.0 0.0 -1.0
outer loop
vertex 10.9210204827744 -7.07106781186548 0.0
vertex 10.9210204827744 7.07106781186547 0.0
vertex 12.5102067087533 -5.0 0.0
endloop
endfacet
facet normal 0.0 0.0 -1.0
outer loop
vertex 12.5102067087533 -5.0 0.0
vertex 10.9210204827744 7.07106781186547 0.0
vertex 12.5102067087533 5.0 0.0
endloop
endfacet
facet normal 0.0 0.0 -1.0
outer loop
vertex 12.5102067087533 -5.0 0.0
vertex 12.5102067087533 5.0 0.0
vertex 13.5092109337996 -2.58819045102522 0.0
endloop
endfacet
facet normal 0.0 0.0 -1.0
outer loop
vertex 13.5092109337996 -2.58819045102522 0.0
vertex 12.5102067087533 5.0 0.0
vertex 13.5092109337996 2.58819045102521 0.0
endloop
endfacet
facet normal 0.0 0.0 -1.0
outer loop
vertex 13.5092109337996 -2.58819045102522 0.0
vertex 13.5092109337996 2.58819045102521 0.0
vertex 13.8499526709089 0.0 0.0
endloop
endfacet
facet normal 0.0 0.0 -1.0
outer loop
vertex -5.8093055919818 2.58819045102521 0.0
vertex -5.8093055919818 -2.5881904510252 0.0
vertex -6.15004732909112 1.22464679914735e-015 0.0
endloop
endfacet
facet normal 0.0 0.0 -1.0
outer loop
vertex -5.8093055919818 -2.5881904510252 0.0
vertex -5.8093055919818 2.58819045102521 0.0
vertex -4.81030136693551 -5.0 0.0
endloop
endfacet
facet normal 0.0 0.0 -1.0
outer loop
vertex -4.81030136693551 -5.0 0.0
vertex -5.8093055919818 2.58819045102521 0.0
vertex -4.8103013669355 5.0 0.0
endloop
endfacet
facet normal 0.0 0.0 -1.0
outer loop
vertex -4.81030136693551 -5.0 0.0
vertex -4.8103013669355 5.0 0.0
vertex -3.22111514095659 -7.07106781186547 0.0
endloop
endfacet
facet normal 0.0 0.0 -1.0
outer loop
vertex -3.22111514095659 -7.07106781186547 0.0
vertex -4.8103013669355 5.0 0.0
vertex -3.22111514095659 7.07106781186548 0.0
endloop
endfacet
facet normal 0.0 0.0 -1.0
outer loop
vertex -3.22111514095659 -7.07106781186547 0.0
vertex -3.22111514095659 7.07106781186548 0.0
vertex -1.15004732909112 -8.66025403784438 0.0
endloop
endfacet
facet normal 0.0 0.0 -1.0
outer loop
vertex -1.15004732909112 -8.66025403784438 0.0
vertex -3.22111514095659 7.07106781186548 0.0
vertex -1.7619925767747 -0.252551300513074 0.0
endloop
endfacet
facet normal 0.0 0.0 -1.0
outer loop
vertex -1.7619925767747 -0.252551300513074 0.0
vertex -3.22111514095659 7.07106781186548 0.0
vertex -1.7673192220745 0.212091412570089 0.0
endloop
endfacet
facet normal 0.0 0.0 -1.0
outer loop
vertex -1.15004732909112 -8.66025403784438 0.0
vertex -1.7619925767747 -0.252551300513074 0.0
vertex -1.63658904919812 -0.699983059827028 0.0
endloop
endfacet
facet normal 0.0 0.0 -1.0
outer loop
vertex -1.15004732909112 -8.66025403784438 0.0
vertex -1.63658904919812 -0.699983059827028 0.0
vertex -1.39965468250996 -1.09971213039047 0.0
endloop
endfacet
facet normal 0.0 0.0 -1.0
outer loop
vertex -1.15004732909112 -8.66025403784438 0.0
vertex -1.39965468250996 -1.09971213039047 0.0
vertex -1.06733616224747 -1.42449763662803 0.0
endloop
endfacet
facet normal 0.0 0.0 -1.0
outer loop
vertex -1.15004732909112 -8.66025403784438 0.0
vertex -1.06733616224747 -1.42449763662803 0.0
vertex 1.26176221988367 -9.65925826289068 0.0
endloop
endfacet
facet normal 0.0 0.0 -1.0
outer loop
vertex 1.26176221988367 -9.65925826289068 0.0
vertex -1.06733616224747 -1.42449763662803 0.0
vertex -0.662280446384231 -1.65220598302303 0.0
endloop
endfacet
facet normal 0.0 0.0 -1.0
outer loop
vertex 1.26176221988367 -9.65925826289068 0.0
vertex -0.662280446384231 -1.65220598302303 0.0
vertex -0.212091412570089 -1.7673192220745 0.0
endloop
endfacet
facet normal 0.0 0.0 -1.0
outer loop
vertex 1.26176221988367 -9.65925826289068 0.0
vertex -0.212091412570089 -1.7673192220745 0.0
vertex 0.252551300513073 -1.7619925767747 0.0
endloop
endfacet
facet normal 0.0 0.0 -1.0
outer loop
vertex 1.26176221988367 -9.65925826289068 0.0
vertex 0.252551300513073 -1.7619925767747 0.0
vertex 0.699983059827028 -1.63658904919812 0.0
endloop
endfacet
facet normal 0.0 0.0 -1.0
outer loop
vertex 1.26176221988367 -9.65925826289068 0.0
vertex 0.699983059827028 -1.63658904919812 0.0
vertex 1.09971213039047 -1.39965468250996 0.0
endloop
endfacet
facet normal 0.0 0.0 -1.0
outer loop
vertex 1.26176221988367 -9.65925826289068 0.0
vertex 1.09971213039047 -1.39965468250996 0.0
vertex 1.42449763662803 -1.06733616224747 0.0
endloop
endfacet
facet normal 0.0 0.0 -1.0
outer loop
vertex 1.26176221988367 -9.65925826289068 0.0
vertex 1.42449763662803 -1.06733616224747 0.0
vertex 3.84995267090888 -10.0 0.0
endloop
endfacet
facet normal 0.0 0.0 -1.0
outer loop
vertex 3.84995267090888 -10.0 0.0
vertex 1.42449763662803 -1.06733616224747 0.0
vertex 1.65220598302303 -0.662280446384231 0.0
endloop
endfacet
facet normal 0.0 0.0 -1.0
outer loop
vertex 3.84995267090888 -10.0 0.0
vertex 1.65220598302303 -0.662280446384231 0.0
vertex 1.7673192220745 -0.212091412570088 0.0
endloop
endfacet
facet normal -0.0 -0.0 1.0
outer loop
vertex -5.8093055919818 -2.5881904510252 5.0
vertex -5.8093055919818 2.58819045102521 5.0
vertex -6.15004732909112 1.22464679914735e-015 5.0
endloop
endfacet
facet normal -0.0 -0.0 1.0
outer loop
vertex -5.8093055919818 2.58819045102521 5.0
vertex -5.8093055919818 -2.5881904510252 5.0
vertex -4.81030136693551 -5.0 5.0
endloop
endfacet
facet normal -0.0 -0.0 1.0
outer loop
vertex -5.8093055919818 2.58819045102521 5.0
vertex -4.81030136693551 -5.0 5.0
vertex -4.8103013669355 5.0 5.0
endloop
endfacet
facet normal -0.0 -0.0 1.0
outer loop
vertex -4.8103013669355 5.0 5.0
vertex -4.81030136693551 -5.0 5.0
vertex -3.22111514095659 -7.07106781186547 5.0
endloop
endfacet
facet normal -0.0 -0.0 1.0
outer loop
vertex -4.8103013669355 5.0 5.0
vertex -3.22111514095659 -7.07106781186547 5.0
vertex -3.22111514095659 7.07106781186548 5.0
endloop
endfacet
facet normal -0.0 -0.0 1.0
outer loop
vertex -3.22111514095659 7.07106781186548 5.0
vertex -3.22111514095659 -7.07106781186547 5.0
vertex -1.15004732909112 -8.66025403784438 5.0
endloop
endfacet
facet normal -0.0 -0.0 1.0
outer loop
vertex -3.22111514095659 7.07106781186548 5.0
vertex -1.15004732909112 -8.66025403784438 5.0
vertex -1.7619925767747 -0.252551300513074 5.0
endloop
endfacet
facet normal -0.0 -0.0 1.0
outer loop
vertex -3.22111514095659 7.07106781186548 5.0
vertex -1.7619925767747 -0.252551300513074 5.0
vertex -1.7673192220745 0.212091412570089 5.0
endloop
endfacet
facet normal -0.0 -0.0 1.0
outer loop
vertex -1.7619925767747 -0.252551300513074 5.0
vertex -1.15004732909112 -8.66025403784438 5.0
vertex -1.63658904919812 -0.699983059827028 5.0
endloop
endfacet
facet normal -0.0 -0.0 1.0
outer loop
vertex -1.63658904919812 -0.699983059827028 5.0
vertex -1.15004732909112 -8.66025403784438 5.0
vertex -1.39965468250996 -1.09971213039047 5.0
endloop
endfacet
facet normal -0.0 -0.0 1.0
outer loop
vertex -1.39965468250996 -1.09971213039047 5.0
vertex -1.15004732909112 -8.66025403784438 5.0
vertex -1.06733616224747 -1.42449763662803 5.0
endloop
endfacet
facet normal -0.0 -0.0 1.0
outer loop
vertex -1.06733616224747 -1.42449763662803 5.0
vertex -1.15004732909112 -8.66025403784438 5.0
vertex 1.26176221988367 -9.65925826289068 5.0
endloop
endfacet
facet normal -0.0 -0.0 1.0
outer loop
vertex -1.06733616224747 -1.42449763662803 5.0
vertex 1.26176221988367 -9.65925826289068 5.0
vertex -0.662280446384231 -1.65220598302303 5.0
endloop
endfacet
facet normal -0.0 -0.0 1.0
outer loop
vertex -0.662280446384231 -1.65220598302303 5.0
vertex 1.26176221988367 -9.65925826289068 5.0
vertex -0.212091412570089 -1.7673192220745 5.0
endloop
endfacet
facet normal -0.0 -0.0 1.0
outer loop
vertex -0.212091412570089 -1.7673192220745 5.0
vertex 1.26176221988367 -9.65925826289068 5.0
vertex 0.252551300513073 -1.7619925767747 5.0
endloop
endfacet
facet normal -0.0 -0.0 1.0
outer loop
vertex 0.252551300513073 -1.7619925767747 5.0
vertex 1.26176221988367 -9.65925826289068 5.0
vertex 0.699983059827028 -1.63658904919812 5.0
endloop
endfacet
facet normal -0.0 -0.0 1.0
outer loop
vertex 0.699983059827028 -1.63658904919812 5.0
vertex 1.26176221988367 -9.65925826289068 5.0
vertex 1.09971213039047 -1.39965468250996 5.0
endloop
endfacet
facet normal -0.0 -0.0 1.0
outer loop
vertex 1.09971213039047 -1.39965468250996 5.0
vertex 1.26176221988367 -9.65925826289068 5.0
vertex 1.42449763662803 -1.06733616224747 5.0
endloop
endfacet
facet normal -0.0 -0.0 1.0
outer loop
vertex 1.42449763662803 -1.06733616224747 5.0
vertex 1.26176221988367 -9.65925826289068 5.0
vertex 3.84995267090888 -10.0 5.0
endloop
endfacet
facet normal -0.0 -0.0 1.0
outer loop
vertex 1.42449763662803 -1.06733616224747 5.0
vertex 3.84995267090888 -10.0 5.0
vertex 1.65220598302303 -0.662280446384231 5.0
endloop
endfacet
facet normal -0.0 -0.0 1.0
outer loop
vertex 1.65220598302303 -0.662280446384231 5.0
vertex 3.84995267090888 -10.0 5.0
vertex 1.7673192220745 -0.212091412570088 5.0
endloop
endfacet
facet normal -0.0 -0.0 1.0
outer loop
vertex -1.7673192220745 0.212091412570089 5.0
vertex -1.15004732909111 8.66025403784439 5.0
vertex -3.22111514095659 7.07106781186548 5.0
endloop
endfacet
facet normal -0.0 -0.0 1.0
outer loop
vertex -1.15004732909111 8.66025403784439 5.0
vertex -1.7673192220745 0.212091412570089 5.0
vertex -1.65220598302303 0.662280446384231 5.0
endloop
endfacet
facet normal -0.0 -0.0 1.0
outer loop
vertex -1.15004732909111 8.66025403784439 5.0
vertex -1.65220598302303 0.662280446384231 5.0
vertex -1.42449763662803 1.06733616224747 5.0
endloop
endfacet
facet normal -0.0 -0.0 1.0
outer loop
vertex -1.15004732909111 8.66025403784439 5.0
vertex -1.42449763662803 1.06733616224747 5.0
vertex -1.09971213039047 1.39965468250996 5.0
endloop
endfacet
facet normal -0.0 -0.0 1.0
outer loop
vertex -1.15004732909111 8.66025403784439 5.0
vertex -1.09971213039047 1.39965468250996 5.0
vertex 1.26176221988368 9.65925826289068 5.0
endloop
endfacet
facet normal -0.0 -0.0 1.0
outer loop
vertex 1.26176221988368 9.65925826289068 5.0
vertex -1.09971213039047 1.39965468250996 5.0
vertex -0.699983059827028 1.63658904919812 5.0
endloop
endfacet
facet normal -0.0 -0.0 1.0
outer loop
vertex 1.26176221988368 9.65925826289068 5.0
vertex -0.699983059827028 1.63658904919812 5.0
vertex -0.252551300513074 1.7619925767747 5.0
endloop
endfacet
facet normal -0.0 -0.0 1.0
outer loop
vertex 1.26176221988368 9.65925826289068 5.0
vertex -0.252551300513074 1.7619925767747 5.0
vertex 0.212091412570089 1.7673192220745 5.0
endloop
endfacet
facet normal -0.0 -0.0 1.0
outer loop
vertex 1.26176221988368 9.65925826289068 5.0
vertex 0.212091412570089 1.7673192220745 5.0
vertex 0.662280446384231 1.65220598302303 5.0
endloop
endfacet
facet normal -0.0 -0.0 1.0
outer loop
vertex 1.26176221988368 9.65925826289068 5.0
vertex 0.662280446384231 1.65220598302303 5.0
vertex 1.06733616224747 1.42449763662803 5.0
endloop
endfacet
facet normal -0.0 -0.0 1.0
outer loop
vertex 1.26176221988368 9.65925826289068 5.0
vertex 1.06733616224747 1.42449763662803 5.0
vertex 1.39965468250996 1.09971213039047 5.0
endloop
endfacet
facet normal -0.0 -0.0 1.0
outer loop
vertex 1.26176221988368 9.65925826289068 5.0
vertex 1.39965468250996 1.09971213039047 5.0
vertex 3.84995267090888 10.0 5.0
endloop
endfacet
facet normal -0.0 -0.0 1.0
outer loop
vertex 3.84995267090888 10.0 5.0
vertex 1.39965468250996 1.09971213039047 5.0
vertex 1.63658904919812 0.699983059827028 5.0
endloop
endfacet
facet normal -0.0 -0.0 1.0
outer loop
vertex 3.84995267090888 10.0 5.0
vertex 1.63658904919812 0.699983059827028 5.0
vertex 1.7619925767747 0.252551300513074 5.0
endloop
endfacet
facet normal -0.0 -0.0 1.0
outer loop
vertex 3.84995267090888 10.0 5.0
vertex 1.7619925767747 0.252551300513074 5.0
vertex 1.7673192220745 -0.212091412570088 5.0
endloop
endfacet
facet normal -0.0 -0.0 1.0
outer loop
vertex 3.84995267090888 10.0 5.0
vertex 1.7673192220745 -0.212091412570088 5.0
vertex 3.84995267090888 -10.0 5.0
endloop
endfacet
facet normal -0.0 -0.0 1.0
outer loop
vertex 3.84995267090888 10.0 5.0
vertex 3.84995267090888 -10.0 5.0
vertex 6.43814312193409 -9.65925826289068 5.0
endloop
endfacet
facet normal -0.0 -0.0 1.0
outer loop
vertex 3.84995267090888 10.0 5.0
vertex 6.43814312193409 -9.65925826289068 5.0
vertex 6.43814312193409 9.65925826289068 5.0
endloop
endfacet
facet normal -0.0 -0.0 1.0
outer loop
vertex 6.43814312193409 9.65925826289068 5.0
vertex 6.43814312193409 -9.65925826289068 5.0
vertex 8.84995267090888 -8.66025403784439 5.0
endloop
endfacet
facet normal -0.0 -0.0 1.0
outer loop
vertex 6.43814312193409 9.65925826289068 5.0
vertex 8.84995267090888 -8.66025403784439 5.0
vertex 8.84995267090888 8.66025403784439 5.0
endloop
endfacet
facet normal -0.0 -0.0 1.0
outer loop
vertex 8.84995267090888 8.66025403784439 5.0
vertex 8.84995267090888 -8.66025403784439 5.0
vertex 10.9210204827744 -7.07106781186548 5.0
endloop
endfacet
facet normal -0.0 -0.0 1.0
outer loop
vertex 8.84995267090888 8.66025403784439 5.0
vertex 10.9210204827744 -7.07106781186548 5.0
vertex 10.9210204827744 7.07106781186547 5.0
endloop
endfacet
facet normal -0.0 -0.0 1.0
outer loop
vertex 10.9210204827744 7.07106781186547 5.0
vertex 10.9210204827744 -7.07106781186548 5.0
vertex 12.5102067087533 -5.0 5.0
endloop
endfacet
facet normal -0.0 -0.0 1.0
outer loop
vertex 10.9210204827744 7.07106781186547 5.0
vertex 12.5102067087533 -5.0 5.0
vertex 12.5102067087533 5.0 5.0
endloop
endfacet
facet normal -0.0 -0.0 1.0
outer loop
vertex 12.5102067087533 5.0 5.0
vertex 12.5102067087533 -5.0 5.0
vertex 13.5092109337996 -2.58819045102522 5.0
endloop
endfacet
facet normal -0.0 -0.0 1.0
outer loop
vertex 12.5102067087533 5.0 5.0
vertex 13.5092109337996 -2.58819045102522 5.0
vertex 13.5092109337996 2.58819045102521 5.0
endloop
endfacet
facet normal -0.0 -0.0 1.0
outer loop
vertex 13.5092109337996 2.58819045102521 5.0
vertex 13.5092109337996 -2.58819045102522 5.0
vertex 13.8499526709089 0.0 5.0
endloop
endfacet
facet normal 0.923879532511286 -0.382683432365091 0.0
outer loop
vertex 13.5092109337996 -2.58819045102522 0.0
vertex 12.5102067087533 -5.0 5.0
vertex 12.5102067087533 -5.0 0.0
endloop
endfacet
facet normal 0.923879532511286 -0.382683432365091 0.0
outer loop
vertex 12.5102067087533 -5.0 5.0
vertex 13.5092109337996 -2.58819045102522 0.0
vertex 13.5092109337996 -2.58819045102522 5.0
endloop
endfacet
facet normal 0.793353340291235 -0.608761429008721 0.0
outer loop
vertex 12.5102067087533 -5.0 0.0
vertex 10.9210204827744 -7.07106781186548 5.0
vertex 10.9210204827744 -7.07106781186548 0.0
endloop
endfacet
facet normal 0.793353340291235 -0.608761429008721 0.0
outer loop
vertex 10.9210204827744 -7.07106781186548 5.0
vertex 12.5102067087533 -5.0 0.0
vertex 12.5102067087533 -5.0 5.0
endloop
endfacet
facet normal 0.60876142900872 -0.793353340291236 0.0
outer loop
vertex 10.9210204827744 -7.07106781186548 5.0
vertex 8.84995267090888 -8.66025403784439 0.0
vertex 10.9210204827744 -7.07106781186548 0.0
endloop
endfacet
facet normal 0.60876142900872 -0.793353340291236 0.0
outer loop
vertex 8.84995267090888 -8.66025403784439 0.0
vertex 10.9210204827744 -7.07106781186548 5.0
vertex 8.84995267090888 -8.66025403784439 5.0
endloop
endfacet
facet normal 0.382683432365089 -0.923879532511287 0.0
outer loop
vertex 8.84995267090888 -8.66025403784439 5.0
vertex 6.43814312193409 -9.65925826289068 0.0
vertex 8.84995267090888 -8.66025403784439 0.0
endloop
endfacet
facet normal 0.382683432365089 -0.923879532511287 0.0
outer loop
vertex 6.43814312193409 -9.65925826289068 0.0
vertex 8.84995267090888 -8.66025403784439 5.0
vertex 6.43814312193409 -9.65925826289068 5.0
endloop
endfacet
facet normal 0.130526192220051 -0.99144486137381 0.0
outer loop
vertex 6.43814312193409 -9.65925826289068 5.0
vertex 3.84995267090888 -10.0 0.0
vertex 6.43814312193409 -9.65925826289068 0.0
endloop
endfacet
facet normal 0.130526192220051 -0.99144486137381 0.0
outer loop
vertex 3.84995267090888 -10.0 0.0
vertex 6.43814312193409 -9.65925826289068 5.0
vertex 3.84995267090888 -10.0 5.0
endloop
endfacet
facet normal -0.130526192220052 -0.99144486137381 -0.0
outer loop
vertex 3.84995267090888 -10.0 5.0
vertex 1.26176221988367 -9.65925826289068 0.0
vertex 3.84995267090888 -10.0 0.0
endloop
endfacet
facet normal -0.130526192220052 -0.99144486137381 -0.0
outer loop
vertex 1.26176221988367 -9.65925826289068 0.0
vertex 3.84995267090888 -10.0 5.0
vertex 1.26176221988367 -9.65925826289068 5.0
endloop
endfacet
facet normal -0.382683432365091 -0.923879532511287 -0.0
outer loop
vertex 1.26176221988367 -9.65925826289068 5.0
vertex -1.15004732909112 -8.66025403784438 0.0
vertex 1.26176221988367 -9.65925826289068 0.0
endloop
endfacet
facet normal -0.382683432365091 -0.923879532511287 -0.0
outer loop
vertex -1.15004732909112 -8.66025403784438 0.0
vertex 1.26176221988367 -9.65925826289068 5.0
vertex -1.15004732909112 -8.66025403784438 5.0
endloop
endfacet
facet normal -0.608761429008721 -0.793353340291235 -0.0
outer loop
vertex -1.15004732909112 -8.66025403784438 5.0
vertex -3.22111514095659 -7.07106781186547 0.0
vertex -1.15004732909112 -8.66025403784438 0.0
endloop
endfacet
facet normal -0.608761429008721 -0.793353340291235 -0.0
outer loop
vertex -3.22111514095659 -7.07106781186547 0.0
vertex -1.15004732909112 -8.66025403784438 5.0
vertex -3.22111514095659 -7.07106781186547 5.0
endloop
endfacet
facet normal -0.793353340291235 -0.60876142900872 -0.0
outer loop
vertex -4.81030136693551 -5.0 5.0
vertex -3.22111514095659 -7.07106781186547 0.0
vertex -3.22111514095659 -7.07106781186547 5.0
endloop
endfacet
facet normal -0.793353340291235 -0.60876142900872 -0.0
outer loop
vertex -3.22111514095659 -7.07106781186547 0.0
vertex -4.81030136693551 -5.0 5.0
vertex -4.81030136693551 -5.0 0.0
endloop
endfacet
facet normal -0.923879532511287 -0.382683432365089 -0.0
outer loop
vertex -5.8093055919818 -2.5881904510252 5.0
vertex -4.81030136693551 -5.0 0.0
vertex -4.81030136693551 -5.0 5.0
endloop
endfacet
facet normal -0.923879532511287 -0.382683432365089 -0.0
outer loop
vertex -4.81030136693551 -5.0 0.0
vertex -5.8093055919818 -2.5881904510252 5.0
vertex -5.8093055919818 -2.5881904510252 0.0
endloop
endfacet
facet normal -0.99144486137381 -0.130526192220051 -0.0
outer loop
vertex -6.15004732909112 1.22464679914735e-015 5.0
vertex -5.8093055919818 -2.5881904510252 0.0
vertex -5.8093055919818 -2.5881904510252 5.0
endloop
endfacet
facet normal -0.99144486137381 -0.130526192220051 -0.0
outer loop
vertex -5.8093055919818 -2.5881904510252 0.0
vertex -6.15004732909112 1.22464679914735e-015 5.0
vertex -6.15004732909112 1.22464679914735e-015 0.0
endloop
endfacet
facet normal -0.99144486137381 0.130526192220052 0.0
outer loop
vertex -5.8093055919818 2.58819045102521 5.0
vertex -6.15004732909112 1.22464679914735e-015 0.0
vertex -6.15004732909112 1.22464679914735e-015 5.0
endloop
endfacet
facet normal -0.99144486137381 0.130526192220052 0.0
outer loop
vertex -6.15004732909112 1.22464679914735e-015 0.0
vertex -5.8093055919818 2.58819045102521 5.0
vertex -5.8093055919818 2.58819045102521 0.0
endloop
endfacet
facet normal -0.923879532511287 0.38268343236509 0.0
outer loop
vertex -4.8103013669355 5.0 5.0
vertex -5.8093055919818 2.58819045102521 0.0
vertex -5.8093055919818 2.58819045102521 5.0
endloop
endfacet
facet normal -0.923879532511287 0.38268343236509 0.0
outer loop
vertex -5.8093055919818 2.58819045102521 0.0
vertex -4.8103013669355 5.0 5.0
vertex -4.8103013669355 5.0 0.0
endloop
endfacet
facet normal -0.793353340291235 0.608761429008721 0.0
outer loop
vertex -3.22111514095659 7.07106781186548 5.0
vertex -4.8103013669355 5.0 0.0
vertex -4.8103013669355 5.0 5.0
endloop
endfacet
facet normal -0.793353340291235 0.608761429008721 0.0
outer loop
vertex -4.8103013669355 5.0 0.0
vertex -3.22111514095659 7.07106781186548 5.0
vertex -3.22111514095659 7.07106781186548 0.0
endloop
endfacet
facet normal -0.60876142900872 0.793353340291235 0.0
outer loop
vertex -3.22111514095659 7.07106781186548 5.0
vertex -1.15004732909111 8.66025403784439 0.0
vertex -3.22111514095659 7.07106781186548 0.0
endloop
endfacet
facet normal -0.60876142900872 0.793353340291235 0.0
outer loop
vertex -1.15004732909111 8.66025403784439 0.0
vertex -3.22111514095659 7.07106781186548 5.0
vertex -1.15004732909111 8.66025403784439 5.0
endloop
endfacet
facet normal -0.382683432365089 0.923879532511287 0.0
outer loop
vertex -1.15004732909111 8.66025403784439 5.0
vertex 1.26176221988368 9.65925826289068 0.0
vertex -1.15004732909111 8.66025403784439 0.0
endloop
endfacet
facet normal -0.382683432365089 0.923879532511287 0.0
outer loop
vertex 1.26176221988368 9.65925826289068 0.0
vertex -1.15004732909111 8.66025403784439 5.0
vertex 1.26176221988368 9.65925826289068 5.0
endloop
endfacet
facet normal -0.130526192220052 0.99144486137381 0.0
outer loop
vertex 1.26176221988368 9.65925826289068 5.0
vertex 3.84995267090888 10.0 0.0
vertex 1.26176221988368 9.65925826289068 0.0
endloop
endfacet
facet normal -0.130526192220052 0.99144486137381 0.0
outer loop
vertex 3.84995267090888 10.0 0.0
vertex 1.26176221988368 9.65925826289068 5.0
vertex 3.84995267090888 10.0 5.0
endloop
endfacet
facet normal 0.130526192220052 0.99144486137381 0.0
outer loop
vertex 3.84995267090888 10.0 5.0
vertex 6.43814312193409 9.65925826289068 0.0
vertex 3.84995267090888 10.0 0.0
endloop
endfacet
facet normal 0.130526192220052 0.99144486137381 0.0
outer loop
vertex 6.43814312193409 9.65925826289068 0.0
vertex 3.84995267090888 10.0 5.0
vertex 6.43814312193409 9.65925826289068 5.0
endloop
endfacet
facet normal 0.38268343236509 0.923879532511287 0.0
outer loop
vertex 6.43814312193409 9.65925826289068 5.0
vertex 8.84995267090888 8.66025403784439 0.0
vertex 6.43814312193409 9.65925826289068 0.0
endloop
endfacet
facet normal 0.38268343236509 0.923879532511287 0.0
outer loop
vertex 8.84995267090888 8.66025403784439 0.0
vertex 6.43814312193409 9.65925826289068 5.0
vertex 8.84995267090888 8.66025403784439 5.0
endloop
endfacet
facet normal 0.608761429008721 0.793353340291235 0.0
outer loop
vertex 8.84995267090888 8.66025403784439 5.0
vertex 10.9210204827744 7.07106781186547 0.0
vertex 8.84995267090888 8.66025403784439 0.0
endloop
endfacet
facet normal 0.608761429008721 0.793353340291235 0.0
outer loop
vertex 10.9210204827744 7.07106781186547 0.0
vertex 8.84995267090888 8.66025403784439 5.0
vertex 10.9210204827744 7.07106781186547 5.0
endloop
endfacet
facet normal 0.793353340291235 0.608761429008721 0.0
outer loop
vertex 10.9210204827744 7.07106781186547 0.0
vertex 12.5102067087533 5.0 5.0
vertex 12.5102067087533 5.0 0.0
endloop
endfacet
facet normal 0.793353340291235 0.608761429008721 0.0
outer loop
vertex 12.5102067087533 5.0 5.0
vertex 10.9210204827744 7.07106781186547 0.0
vertex 10.9210204827744 7.07106781186547 5.0
endloop
endfacet
facet normal 0.923879532511287 0.382683432365089 0.0
outer loop
vertex 12.5102067087533 5.0 0.0
vertex 13.5092109337996 2.58819045102521 5.0
vertex 13.5092109337996 2.58819045102521 0.0
endloop
endfacet
facet normal 0.923879532511287 0.382683432365089 0.0
outer loop
vertex 13.5092109337996 2.58819045102521 5.0
vertex 12.5102067087533 5.0 0.0
vertex 12.5102067087533 5.0 5.0
endloop
endfacet
facet normal 0.99144486137381 0.130526192220052 0.0
outer loop
vertex 13.5092109337996 2.58819045102521 0.0
vertex 13.8499526709089 0.0 5.0
vertex 13.8499526709089 0.0 0.0
endloop
endfacet
facet normal 0.99144486137381 0.130526192220052 0.0
outer loop
vertex 13.8499526709089 0.0 5.0
vertex 13.5092109337996 2.58819045102521 0.0
vertex 13.5092109337996 2.58819045102521 5.0
endloop
endfacet
facet normal 0.99144486137381 -0.130526192220051 0.0
outer loop
vertex 13.8499526709089 0.0 0.0
vertex 13.5092109337996 -2.58819045102522 5.0
vertex 13.5092109337996 -2.58819045102522 0.0
endloop
endfacet
facet normal 0.99144486137381 -0.130526192220051 0.0
outer loop
vertex 13.5092109337996 -2.58819045102522 5.0
vertex 13.8499526709089 0.0 0.0
vertex 13.8499526709089 0.0 5.0
endloop
endfacet
facet normal -0.999934295291164 -0.0114632063823381 -0.0
outer loop
vertex 1.7619925767747 0.252551300513074 5.0
vertex 1.7673192220745 -0.212091412570088 0.0
vertex 1.7673192220745 -0.212091412570088 5.0
endloop
endfacet
facet normal -0.999934295291164 -0.0114632063823381 -0.0
outer loop
vertex 1.7673192220745 -0.212091412570088 0.0
vertex 1.7619925767747 0.252551300513074 5.0
vertex 1.7619925767747 0.252551300513074 0.0
endloop
endfacet
facet normal -0.962895464284205 -0.269874646569303 -0.0
outer loop
vertex 1.63658904919812 0.699983059827028 5.0
vertex 1.7619925767747 0.252551300513074 0.0
vertex 1.7619925767747 0.252551300513074 5.0
endloop
endfacet
facet normal -0.962895464284205 -0.269874646569303 -0.0
outer loop
vertex 1.7619925767747 0.252551300513074 0.0
vertex 1.63658904919812 0.699983059827028 5.0
vertex 1.63658904919812 0.699983059827028 0.0
endloop
endfacet
facet normal -0.860236898646269 -0.50989457558151 -0.0
outer loop
vertex 1.39965468250996 1.09971213039047 5.0
vertex 1.63658904919812 0.699983059827028 0.0
vertex 1.63658904919812 0.699983059827028 5.0
endloop
endfacet
facet normal -0.860236898646269 -0.50989457558151 -0.0
outer loop
vertex 1.63658904919812 0.699983059827028 0.0
vertex 1.39965468250996 1.09971213039047 5.0
vertex 1.39965468250996 1.09971213039047 0.0
endloop
endfacet
facet normal -0.698954609974281 -0.715166031908466 -0.0
outer loop
vertex 1.39965468250996 1.09971213039047 5.0
vertex 1.06733616224747 1.42449763662803 0.0
vertex 1.39965468250996 1.09971213039047 0.0
endloop
endfacet
facet normal -0.698954609974281 -0.715166031908466 -0.0
outer loop
vertex 1.06733616224747 1.42449763662803 0.0
vertex 1.39965468250996 1.09971213039047 5.0
vertex 1.06733616224747 1.42449763662803 5.0
endloop
endfacet
facet normal -0.490039719709653 -0.871700105028607 -0.0
outer loop
vertex 1.06733616224747 1.42449763662803 5.0
vertex 0.662280446384231 1.65220598302303 0.0
vertex 1.06733616224747 1.42449763662803 0.0
endloop
endfacet
facet normal -0.490039719709653 -0.871700105028607 -0.0
outer loop
vertex 0.662280446384231 1.65220598302303 0.0
vertex 1.06733616224747 1.42449763662803 5.0
vertex 0.662280446384231 1.65220598302303 5.0
endloop
endfacet
facet normal -0.247729432375739 -0.968829256543584 -0.0
outer loop
vertex 0.662280446384231 1.65220598302303 5.0
vertex 0.212091412570089 1.7673192220745 0.0
vertex 0.662280446384231 1.65220598302303 0.0
endloop
endfacet
facet normal -0.247729432375739 -0.968829256543584 -0.0
outer loop
vertex 0.212091412570089 1.7673192220745 0.0
vertex 0.662280446384231 1.65220598302303 5.0
vertex 0.212091412570089 1.7673192220745 5.0
endloop
endfacet
facet normal 0.0114632063823381 -0.999934295291164 0.0
outer loop
vertex 0.212091412570089 1.7673192220745 5.0
vertex -0.252551300513074 1.7619925767747 0.0
vertex 0.212091412570089 1.7673192220745 0.0
endloop
endfacet
facet normal 0.0114632063823381 -0.999934295291164 0.0
outer loop
vertex -0.252551300513074 1.7619925767747 0.0
vertex 0.212091412570089 1.7673192220745 5.0
vertex -0.252551300513074 1.7619925767747 5.0
endloop
endfacet
facet normal 0.269874646569303 -0.962895464284205 0.0
outer loop
vertex -0.252551300513074 1.7619925767747 5.0
vertex -0.699983059827028 1.63658904919812 0.0
vertex -0.252551300513074 1.7619925767747 0.0
endloop
endfacet
facet normal 0.269874646569303 -0.962895464284205 0.0
outer loop
vertex -0.699983059827028 1.63658904919812 0.0
vertex -0.252551300513074 1.7619925767747 5.0
vertex -0.699983059827028 1.63658904919812 5.0
endloop
endfacet
facet normal 0.50989457558151 -0.860236898646269 0.0
outer loop
vertex -0.699983059827028 1.63658904919812 5.0
vertex -1.09971213039047 1.39965468250996 0.0
vertex -0.699983059827028 1.63658904919812 0.0
endloop
endfacet
facet normal 0.50989457558151 -0.860236898646269 0.0
outer loop
vertex -1.09971213039047 1.39965468250996 0.0
vertex -0.699983059827028 1.63658904919812 5.0
vertex -1.09971213039047 1.39965468250996 5.0
endloop
endfacet
facet normal 0.715166031908465 -0.698954609974282 0.0
outer loop
vertex -1.09971213039047 1.39965468250996 0.0
vertex -1.42449763662803 1.06733616224747 5.0
vertex -1.42449763662803 1.06733616224747 0.0
endloop
endfacet
facet normal 0.715166031908465 -0.698954609974282 0.0
outer loop
vertex -1.42449763662803 1.06733616224747 5.0
vertex -1.09971213039047 1.39965468250996 0.0
vertex -1.09971213039047 1.39965468250996 5.0
endloop
endfacet
facet normal 0.871700105028607 -0.490039719709653 0.0
outer loop
vertex -1.42449763662803 1.06733616224747 0.0
vertex -1.65220598302303 0.662280446384231 5.0
vertex -1.65220598302303 0.662280446384231 0.0
endloop
endfacet
facet normal 0.871700105028607 -0.490039719709653 0.0
outer loop
vertex -1.65220598302303 0.662280446384231 5.0
vertex -1.42449763662803 1.06733616224747 0.0
vertex -1.42449763662803 1.06733616224747 5.0
endloop
endfacet
facet normal 0.968829256543584 -0.247729432375739 0.0
outer loop
vertex -1.65220598302303 0.662280446384231 0.0
vertex -1.7673192220745 0.212091412570089 5.0
vertex -1.7673192220745 0.212091412570089 0.0
endloop
endfacet
facet normal 0.968829256543584 -0.247729432375739 0.0
outer loop
vertex -1.7673192220745 0.212091412570089 5.0
vertex -1.65220598302303 0.662280446384231 0.0
vertex -1.65220598302303 0.662280446384231 5.0
endloop
endfacet
facet normal 0.999934295291164 0.0114632063823374 0.0
outer loop
vertex -1.7673192220745 0.212091412570089 0.0
vertex -1.7619925767747 -0.252551300513074 5.0
vertex -1.7619925767747 -0.252551300513074 0.0
endloop
endfacet
facet normal 0.999934295291164 0.0114632063823374 0.0
outer loop
vertex -1.7619925767747 -0.252551300513074 5.0
vertex -1.7673192220745 0.212091412570089 0.0
vertex -1.7673192220745 0.212091412570089 5.0
endloop
endfacet
facet normal 0.962895464284205 0.269874646569303 0.0
outer loop
vertex -1.7619925767747 -0.252551300513074 0.0
vertex -1.63658904919812 -0.699983059827028 5.0
vertex -1.63658904919812 -0.699983059827028 0.0
endloop
endfacet
facet normal 0.962895464284205 0.269874646569303 0.0
outer loop
vertex -1.63658904919812 -0.699983059827028 5.0
vertex -1.7619925767747 -0.252551300513074 0.0
vertex -1.7619925767747 -0.252551300513074 5.0
endloop
endfacet
facet normal 0.860236898646269 0.50989457558151 0.0
outer loop
vertex -1.63658904919812 -0.699983059827028 0.0
vertex -1.39965468250996 -1.09971213039047 5.0
vertex -1.39965468250996 -1.09971213039047 0.0
endloop
endfacet
facet normal 0.860236898646269 0.50989457558151 0.0
outer loop
vertex -1.39965468250996 -1.09971213039047 5.0
vertex -1.63658904919812 -0.699983059827028 0.0
vertex -1.63658904919812 -0.699983059827028 5.0
endloop
endfacet
facet normal 0.698954609974282 0.715166031908465 0.0
outer loop
vertex -1.39965468250996 -1.09971213039047 5.0
vertex -1.06733616224747 -1.42449763662803 0.0
vertex -1.39965468250996 -1.09971213039047 0.0
endloop
endfacet
facet normal 0.698954609974282 0.715166031908465 0.0
outer loop
vertex -1.06733616224747 -1.42449763662803 0.0
vertex -1.39965468250996 -1.09971213039047 5.0
vertex -1.06733616224747 -1.42449763662803 5.0
endloop
endfacet
facet normal 0.490039719709654 0.871700105028607 0.0
outer loop
vertex -1.06733616224747 -1.42449763662803 5.0
vertex -0.662280446384231 -1.65220598302303 0.0
vertex -1.06733616224747 -1.42449763662803 0.0
endloop
endfacet
facet normal 0.490039719709654 0.871700105028607 0.0
outer loop
vertex -0.662280446384231 -1.65220598302303 0.0
vertex -1.06733616224747 -1.42449763662803 5.0
vertex -0.662280446384231 -1.65220598302303 5.0
endloop
endfacet
facet normal 0.247729432375739 0.968829256543584 0.0
outer loop
vertex -0.662280446384231 -1.65220598302303 5.0
vertex -0.212091412570089 -1.7673192220745 0.0
vertex -0.662280446384231 -1.65220598302303 0.0
endloop
endfacet
facet normal 0.247729432375739 0.968829256543584 0.0
outer loop
vertex -0.212091412570089 -1.7673192220745 0.0
vertex -0.662280446384231 -1.65220598302303 5.0
vertex -0.212091412570089 -1.7673192220745 5.0
endloop
endfacet
facet normal -0.0114632063823374 0.999934295291164 0.0
outer loop
vertex -0.212091412570089 -1.7673192220745 5.0
vertex 0.252551300513073 -1.7619925767747 0.0
vertex -0.212091412570089 -1.7673192220745 0.0
endloop
endfacet
facet normal -0.0114632063823374 0.999934295291164 0.0
outer loop
vertex 0.252551300513073 -1.7619925767747 0.0
vertex -0.212091412570089 -1.7673192220745 5.0
vertex 0.252551300513073 -1.7619925767747 5.0
endloop
endfacet
facet normal -0.269874646569303 0.962895464284205 0.0
outer loop
vertex 0.252551300513073 -1.7619925767747 5.0
vertex 0.699983059827028 -1.63658904919812 0.0
vertex 0.252551300513073 -1.7619925767747 0.0
endloop
endfacet
facet normal -0.269874646569303 0.962895464284205 0.0
outer loop
vertex 0.699983059827028 -1.63658904919812 0.0
vertex 0.252551300513073 -1.7619925767747 5.0
vertex 0.699983059827028 -1.63658904919812 5.0
endloop
endfacet
facet normal -0.50989457558151 0.860236898646269 0.0
outer loop
vertex 0.699983059827028 -1.63658904919812 5.0
vertex 1.09971213039047 -1.39965468250996 0.0
vertex 0.699983059827028 -1.63658904919812 0.0
endloop
endfacet
facet normal -0.50989457558151 0.860236898646269 0.0
outer loop
vertex 1.09971213039047 -1.39965468250996 0.0
vertex 0.699983059827028 -1.63658904919812 5.0
vertex 1.09971213039047 -1.39965468250996 5.0
endloop
endfacet
facet normal -0.715166031908465 0.698954609974282 0.0
outer loop
vertex 1.42449763662803 -1.06733616224747 5.0
vertex 1.09971213039047 -1.39965468250996 0.0
vertex 1.09971213039047 -1.39965468250996 5.0
endloop
endfacet
facet normal -0.715166031908465 0.698954609974282 0.0
outer loop
vertex 1.09971213039047 -1.39965468250996 0.0
vertex 1.42449763662803 -1.06733616224747 5.0
vertex 1.42449763662803 -1.06733616224747 0.0
endloop
endfacet
facet normal -0.871700105028607 0.490039719709654 0.0
outer loop
vertex 1.65220598302303 -0.662280446384231 5.0
vertex 1.42449763662803 -1.06733616224747 0.0
vertex 1.42449763662803 -1.06733616224747 5.0
endloop
endfacet
facet normal -0.871700105028607 0.490039719709654 0.0
outer loop
vertex 1.42449763662803 -1.06733616224747 0.0
vertex 1.65220598302303 -0.662280446384231 5.0
vertex 1.65220598302303 -0.662280446384231 0.0
endloop
endfacet
facet normal -0.968829256543584 0.247729432375739 0.0
outer loop
vertex 1.7673192220745 -0.212091412570088 5.0
vertex 1.65220598302303 -0.662280446384231 0.0
vertex 1.65220598302303 -0.662280446384231 5.0
endloop
endfacet
facet normal -0.968829256543584 0.247729432375739 0.0
outer loop
vertex 1.65220598302303 -0.662280446384231 0.0
vertex 1.7673192220745 -0.212091412570088 5.0
vertex 1.7673192220745 -0.212091412570088 0.0
endloop
endfacet
endsolid eccentric
